<mxfile host="app.diagrams.net" modified="2021-10-24T15:45:47.124Z" agent="5.0 (Windows NT 10.0; Win64; x64) AppleWebKit/537.36 (KHTML, like Gecko) Chrome/94.0.4606.81 Safari/537.36" etag="kQTOXaq8vA6i5avzZNnS" version="15.5.8" type="github">
  <diagram id="REDtITZ2u2zeIf23zbF-" name="Page-1">
    <mxGraphModel dx="1449" dy="626" grid="1" gridSize="10" guides="1" tooltips="1" connect="1" arrows="1" fold="1" page="1" pageScale="1" pageWidth="850" pageHeight="1100" math="0" shadow="0">
      <root>
        <mxCell id="0" />
        <mxCell id="1" parent="0" />
        <mxCell id="Mv6kXOUIyWLneYsLs_PS-1" value="" style="rounded=1;whiteSpace=wrap;html=1;" parent="1" vertex="1">
          <mxGeometry x="300" y="140" width="220" height="60" as="geometry" />
        </mxCell>
        <mxCell id="Mv6kXOUIyWLneYsLs_PS-2" value="" style="rounded=1;whiteSpace=wrap;html=1;" parent="1" vertex="1">
          <mxGeometry x="90" y="450" width="120" height="60" as="geometry" />
        </mxCell>
        <mxCell id="Mv6kXOUIyWLneYsLs_PS-3" value="" style="rounded=1;whiteSpace=wrap;html=1;" parent="1" vertex="1">
          <mxGeometry x="340" y="450" width="120" height="60" as="geometry" />
        </mxCell>
        <mxCell id="Mv6kXOUIyWLneYsLs_PS-4" value="" style="rounded=1;whiteSpace=wrap;html=1;" parent="1" vertex="1">
          <mxGeometry x="610" y="450" width="120" height="60" as="geometry" />
        </mxCell>
        <mxCell id="Mv6kXOUIyWLneYsLs_PS-5" value="add.java" style="text;html=1;strokeColor=none;fillColor=none;align=center;verticalAlign=middle;whiteSpace=wrap;rounded=0;" parent="1" vertex="1">
          <mxGeometry x="110" y="530" width="60" height="30" as="geometry" />
        </mxCell>
        <mxCell id="Mv6kXOUIyWLneYsLs_PS-6" value="sub.java" style="text;html=1;strokeColor=none;fillColor=none;align=center;verticalAlign=middle;whiteSpace=wrap;rounded=0;" parent="1" vertex="1">
          <mxGeometry x="380" y="540" width="60" height="30" as="geometry" />
        </mxCell>
        <mxCell id="Mv6kXOUIyWLneYsLs_PS-7" value="mul.java" style="text;html=1;strokeColor=none;fillColor=none;align=center;verticalAlign=middle;whiteSpace=wrap;rounded=0;" parent="1" vertex="1">
          <mxGeometry x="650" y="535" width="60" height="30" as="geometry" />
        </mxCell>
        <mxCell id="Mv6kXOUIyWLneYsLs_PS-8" value="" style="endArrow=classic;html=1;rounded=0;" parent="1" edge="1">
          <mxGeometry width="50" height="50" relative="1" as="geometry">
            <mxPoint x="130" y="450" as="sourcePoint" />
            <mxPoint x="360" y="210" as="targetPoint" />
          </mxGeometry>
        </mxCell>
        <mxCell id="Mv6kXOUIyWLneYsLs_PS-9" value="" style="endArrow=classic;html=1;rounded=0;entryX=0.364;entryY=1;entryDx=0;entryDy=0;entryPerimeter=0;" parent="1" target="Mv6kXOUIyWLneYsLs_PS-1" edge="1">
          <mxGeometry width="50" height="50" relative="1" as="geometry">
            <mxPoint x="380" y="450" as="sourcePoint" />
            <mxPoint x="430" y="400" as="targetPoint" />
          </mxGeometry>
        </mxCell>
        <mxCell id="Mv6kXOUIyWLneYsLs_PS-10" value="" style="endArrow=classic;html=1;rounded=0;entryX=0.713;entryY=1.031;entryDx=0;entryDy=0;entryPerimeter=0;" parent="1" target="Mv6kXOUIyWLneYsLs_PS-1" edge="1">
          <mxGeometry width="50" height="50" relative="1" as="geometry">
            <mxPoint x="650" y="450" as="sourcePoint" />
            <mxPoint x="700" y="400" as="targetPoint" />
          </mxGeometry>
        </mxCell>
        <mxCell id="Mv6kXOUIyWLneYsLs_PS-11" value="add .java sub ,mul" style="text;html=1;strokeColor=none;fillColor=none;align=center;verticalAlign=middle;whiteSpace=wrap;rounded=0;" parent="1" vertex="1">
          <mxGeometry x="560" y="155" width="140" height="30" as="geometry" />
        </mxCell>
        <mxCell id="Mv6kXOUIyWLneYsLs_PS-13" value="" style="rounded=1;whiteSpace=wrap;html=1;" parent="1" vertex="1">
          <mxGeometry x="80" y="50" width="170" height="170" as="geometry" />
        </mxCell>
        <mxCell id="Mv6kXOUIyWLneYsLs_PS-14" value="subversion" style="rounded=1;whiteSpace=wrap;html=1;" parent="1" vertex="1">
          <mxGeometry x="112.5" y="95" width="105" height="60" as="geometry" />
        </mxCell>
        <mxCell id="Mv6kXOUIyWLneYsLs_PS-15" value="linux" style="text;html=1;strokeColor=none;fillColor=none;align=center;verticalAlign=middle;whiteSpace=wrap;rounded=0;" parent="1" vertex="1">
          <mxGeometry x="250" y="20" width="60" height="30" as="geometry" />
        </mxCell>
        <mxCell id="Mv6kXOUIyWLneYsLs_PS-16" value="checkout" style="text;html=1;strokeColor=none;fillColor=none;align=center;verticalAlign=middle;whiteSpace=wrap;rounded=0;" parent="1" vertex="1">
          <mxGeometry x="170" y="290" width="60" height="30" as="geometry" />
        </mxCell>
        <mxCell id="Mv6kXOUIyWLneYsLs_PS-17" value="check in" style="text;html=1;strokeColor=none;fillColor=none;align=center;verticalAlign=middle;whiteSpace=wrap;rounded=0;" parent="1" vertex="1">
          <mxGeometry x="240" y="360" width="60" height="30" as="geometry" />
        </mxCell>
        <mxCell id="Mv6kXOUIyWLneYsLs_PS-18" value="remote repo" style="text;html=1;strokeColor=none;fillColor=none;align=center;verticalAlign=middle;whiteSpace=wrap;rounded=0;" parent="1" vertex="1">
          <mxGeometry x="370" y="155" width="90" height="30" as="geometry" />
        </mxCell>
        <mxCell id="Mv6kXOUIyWLneYsLs_PS-19" value="workstaion" style="text;html=1;strokeColor=none;fillColor=none;align=center;verticalAlign=middle;whiteSpace=wrap;rounded=0;" parent="1" vertex="1">
          <mxGeometry x="112.5" y="565" width="60" height="30" as="geometry" />
        </mxCell>
        <mxCell id="0e30GL-WipNLYfhJqcz2-1" value="add ,cechin" style="rounded=1;whiteSpace=wrap;html=1;" vertex="1" parent="1">
          <mxGeometry x="180" y="580" width="120" height="60" as="geometry" />
        </mxCell>
      </root>
    </mxGraphModel>
  </diagram>
</mxfile>
